<svg width="32" height="32" viewBox="0 0 32 32" fill="none" xmlns="http://www.w3.org/2000/svg">
<g id="fluent:book-database-20-regular">
<path id="Vector" d="M6.40039 6.39995V25.6C6.40039 26.4486 6.73753 27.2626 7.33765 27.8627C7.93777 28.4628 8.7517 28.8 9.60039 28.8H24.8004C25.0126 28.8 25.216 28.7157 25.3661 28.5656C25.5161 28.4156 25.6004 28.2121 25.6004 28C25.6004 27.7878 25.5161 27.5843 25.3661 27.4343C25.216 27.2842 25.0126 27.2 24.8004 27.2H9.60039C9.17604 27.2 8.76908 27.0314 8.46902 26.7313C8.16896 26.4313 8.00039 26.0243 8.00039 25.6H24.0004C24.4247 25.6 24.8317 25.4314 25.1318 25.1313C25.4318 24.8313 25.6004 24.4243 25.6004 24V6.39995C25.6004 5.55126 25.2632 4.73733 24.6631 4.13721C24.063 3.53709 23.2491 3.19995 22.4004 3.19995H9.60039C8.7517 3.19995 7.93777 3.53709 7.33765 4.13721C6.73753 4.73733 6.40039 5.55126 6.40039 6.39995ZM22.4004 4.79995C22.8247 4.79995 23.2317 4.96852 23.5318 5.26858C23.8318 5.56864 24.0004 5.9756 24.0004 6.39995V24H8.00039V6.39995C8.00039 5.9756 8.16896 5.56864 8.46902 5.26858C8.76908 4.96852 9.17604 4.79995 9.60039 4.79995H22.4004ZM13.5732 10.152C13.002 10.4832 12.8004 10.8592 12.8004 11.2C12.8004 11.5408 13.002 11.9168 13.5732 12.248C14.146 12.5808 14.9988 12.8 16.0004 12.8C17.002 12.8 17.8548 12.5808 18.4276 12.248C18.9988 11.9168 19.2004 11.5408 19.2004 11.2C19.2004 10.8592 18.9988 10.4832 18.4276 10.152C17.8548 9.81915 17.002 9.59995 16.0004 9.59995C14.9988 9.59995 14.146 9.81915 13.5732 10.152ZM19.2004 13.6496C18.33 14.1456 17.194 14.4 16.0004 14.4C14.8052 14.4 13.6708 14.144 12.8004 13.648V17.6C12.8004 17.7968 12.9716 18.184 13.594 18.5712C14.1812 18.936 15.034 19.2 16.0004 19.2C16.9668 19.2 17.8196 18.936 18.4068 18.5712C19.0292 18.184 19.2004 17.7968 19.2004 17.6V13.648V13.6496ZM11.2004 11.2C11.2004 10.1008 11.8948 9.27675 12.77 8.76795C13.6452 8.26075 14.7924 7.99995 16.0004 7.99995C17.2084 7.99995 18.3556 8.26075 19.2308 8.76795C20.106 9.27675 20.8004 10.1008 20.8004 11.2V17.6C20.8004 18.6032 20.0772 19.416 19.2516 19.9296C18.3908 20.464 17.242 20.8 16.0004 20.8C14.7588 20.8 13.61 20.464 12.7492 19.9296C11.9236 19.4176 11.2004 18.6032 11.2004 17.6V11.2Z" fill="white"/>
</g>
</svg>
