<svg width="32" height="32" viewBox="0 0 32 32" fill="none" xmlns="http://www.w3.org/2000/svg">
<g id="fluent:design-ideas-16-regular">
<path id="Vector" d="M14 21.946C13.3067 21.869 12.6247 21.7113 11.968 21.476C11.988 21.004 12 20.512 12 20V19.326C12.62 19.622 13.294 19.828 14 19.93V15C14 14.2043 14.3161 13.4412 14.8787 12.8786C15.4413 12.316 16.2044 12 17 12H21.93C21.7705 10.8917 21.3475 9.83793 20.6965 8.927C20.0455 8.01607 19.1854 7.2746 18.1886 6.76481C17.1917 6.25502 16.0871 5.99178 14.9675 5.9972C13.8479 6.00262 12.7459 6.27654 11.754 6.79596C11.5958 6.14182 11.3353 5.51678 10.982 4.94396C12.2785 4.29681 13.7122 3.97229 15.161 3.998C16.6099 4.02371 18.0311 4.39888 19.3038 5.09161C20.5766 5.78435 21.6633 6.77417 22.4715 7.97692C23.2797 9.17967 23.7855 10.5598 23.946 12H27C27.7956 12 28.5587 12.316 29.1213 12.8786C29.6839 13.4412 30 14.2043 30 15V25C30 25.7956 29.6839 26.5587 29.1213 27.1213C28.5587 27.6839 27.7956 28 27 28H17C16.2044 28 15.4413 27.6839 14.8787 27.1213C14.3161 26.5587 14 25.7956 14 25V21.946ZM23.946 14C23.7188 16.0292 22.8085 17.9209 21.3647 19.3647C19.9209 20.8085 18.0292 21.7187 16 21.946V25C16 25.2652 16.1054 25.5195 16.2929 25.7071C16.4804 25.8946 16.7348 26 17 26H27C27.2652 26 27.5196 25.8946 27.7071 25.7071C27.8946 25.5195 28 25.2652 28 25V15C28 14.7347 27.8946 14.4804 27.7071 14.2928C27.5196 14.1053 27.2652 14 27 14H23.946ZM21.93 14H17C16.7348 14 16.4804 14.1053 16.2929 14.2928C16.1054 14.4804 16 14.7347 16 15V19.93C17.496 19.7137 18.8818 19.0194 19.9506 17.9506C21.0194 16.8818 21.7138 15.4959 21.93 14ZM9.59 15.122C9.38 14.35 9.04 13.576 8.456 12.982C9.4 12.088 10 10.664 10 8.99996C10 7.60596 9.718 6.64796 9.208 5.88196C8.9817 5.5525 8.72016 5.24871 8.428 4.97596C8.31603 4.86785 8.20268 4.76118 8.088 4.65596C7.966 4.54196 7.854 4.43796 7.708 4.29196C7.408 3.99196 7.374 3.75196 7.374 3.62596C7.37433 3.55592 7.38581 3.48638 7.408 3.41996C7.49944 3.22221 7.5238 3.00001 7.47737 2.78714C7.43095 2.57428 7.31627 2.38241 7.15079 2.24069C6.98531 2.09898 6.77808 2.01519 6.56061 2.00206C6.34314 1.98893 6.12733 2.04718 5.946 2.16796L5.942 2.16996L5.936 2.17396L5.918 2.18596L5.858 2.22596C5.558 2.43994 5.26897 2.66889 4.992 2.91196C4.492 3.35396 3.84 4.00796 3.378 4.78796C2.9747 5.43461 2.65102 6.12764 2.414 6.85196C2.174 7.56996 2 8.34796 2 8.99996C2 10.664 2.6 12.086 3.544 12.984C2.96 13.576 2.62 14.35 2.41 15.124C2 16.628 2 18.488 2 19.926V20C2 24.116 2.77 26.56 3.642 28.014C4.08 28.742 4.536 29.212 4.918 29.508C5.12155 29.6667 5.34307 29.801 5.578 29.908C5.71386 29.9576 5.85582 29.9885 6 30C6.168 30 6.422 29.908 6.422 29.908C6.65693 29.801 6.87845 29.6667 7.082 29.508C7.462 29.212 7.922 28.742 8.358 28.014C9.23 26.562 10 24.116 10 20V19.928C10 18.488 10 16.63 9.59 15.122ZM4.974 14.382C5.2 14.154 5.502 14 6 14C6.5 14 6.8 14.156 7.026 14.38C7.278 14.634 7.496 15.046 7.66 15.648C7.992 16.87 8 18.474 8 20C8 23.884 7.27 25.94 6.642 26.986C6.402 27.386 6.176 27.644 6 27.806C5.74853 27.5641 5.5324 27.2881 5.358 26.986C4.73 25.938 4 23.884 4 20C4 18.474 4.008 16.87 4.34 15.648C4.504 15.048 4.722 14.636 4.974 14.382ZM6 12C5.23 12 4 11.144 4 8.99996C4 8.65396 4.104 8.10596 4.312 7.48596C4.50155 6.90063 4.76287 6.34103 5.09 5.81996C5.264 5.52596 5.49 5.23996 5.734 4.97796C5.872 5.22196 6.054 5.46796 6.294 5.70796C6.44 5.85396 6.63 6.02996 6.792 6.18196L7.04 6.41396C7.25 6.61796 7.412 6.79596 7.542 6.99396C7.782 7.35196 8 7.89396 8 8.99996C8 11.144 6.77 12 6 12Z" fill="white"/>
</g>
</svg>
