<svg width="32" height="32" viewBox="0 0 32 32" fill="none" xmlns="http://www.w3.org/2000/svg">
<g id="fluent:window-dev-tools-24-regular">
<path id="Vector" d="M2.66699 6.99984C2.66699 5.85057 3.12354 4.74837 3.9362 3.93571C4.74885 3.12305 5.85105 2.6665 7.00033 2.6665H22.3337C23.4829 2.6665 24.5851 3.12305 25.3978 3.93571C26.2104 4.74837 26.667 5.85057 26.667 6.99984V10.6798C25.9979 10.6103 25.3218 10.6535 24.667 10.8078V9.33317H4.66699V22.3332C4.66699 23.6212 5.71233 24.6665 7.00033 24.6665H17.647L17.059 25.6852C16.8826 25.9901 16.7565 26.3214 16.6857 26.6665H7.00033C5.85105 26.6665 4.74885 26.21 3.9362 25.3973C3.12354 24.5846 2.66699 23.4824 2.66699 22.3332V6.99984ZM7.00033 4.6665C6.38149 4.6665 5.78799 4.91234 5.35041 5.34992C4.91282 5.78751 4.66699 6.381 4.66699 6.99984V7.33317H24.667V6.99984C24.667 6.381 24.4212 5.78751 23.9836 5.34992C23.546 4.91234 22.9525 4.6665 22.3337 4.6665H7.00033ZM26.4763 11.9998C25.5871 11.9164 24.6926 12.0902 23.8994 12.5006C23.1061 12.9109 22.4474 13.5405 22.0017 14.3145C21.5529 15.0909 21.3375 15.9802 21.381 16.8759C21.4245 17.7717 21.7251 18.6359 22.247 19.3652L18.2137 26.3518C17.9748 26.7972 17.9186 27.3181 18.0571 27.8042C18.1956 28.2903 18.5178 28.7034 18.9555 28.9561C19.3933 29.2088 19.9122 29.2811 20.4023 29.1579C20.8925 29.0347 21.3155 28.7255 21.5817 28.2958L25.6217 21.2958C26.5459 21.3798 27.4743 21.1862 28.288 20.7398C29.1017 20.2935 29.7639 19.6147 30.1898 18.7901C30.6158 17.9655 30.7862 17.0327 30.6793 16.1107C30.5724 15.1888 30.193 14.3197 29.5897 13.6145L27.3897 17.4252C27.2892 17.6054 27.1539 17.7638 26.9916 17.8912C26.8294 18.0186 26.6434 18.1125 26.4445 18.1673C26.2457 18.2222 26.0379 18.237 25.8332 18.2108C25.6286 18.1846 25.4312 18.118 25.2526 18.0149C25.0739 17.9117 24.9176 17.774 24.7926 17.6099C24.6676 17.4458 24.5766 17.2584 24.5247 17.0587C24.4728 16.8591 24.4611 16.6511 24.4904 16.4468C24.5196 16.2426 24.5892 16.0463 24.695 15.8692L26.895 12.0585C26.7564 12.0326 26.6167 12.013 26.4763 11.9998ZM13.7377 12.3238C13.8265 12.4206 13.8953 12.534 13.9403 12.6574C13.9853 12.7809 14.0055 12.912 13.9998 13.0432C13.9941 13.1745 13.9626 13.3033 13.9071 13.4224C13.8516 13.5415 13.7732 13.6484 13.6763 13.7372L10.4803 16.6665L13.6763 19.5958C13.8719 19.7751 13.9882 20.0247 13.9997 20.2898C14.0112 20.5549 13.9169 20.8136 13.7377 21.0092C13.5584 21.2047 13.3087 21.321 13.0437 21.3325C12.7786 21.344 12.5199 21.2498 12.3243 21.0705L8.32433 17.4038C8.22207 17.3102 8.14042 17.1962 8.08456 17.0693C8.0287 16.9424 7.99985 16.8052 7.99985 16.6665C7.99985 16.5278 8.0287 16.3907 8.08456 16.2637C8.14042 16.1368 8.22207 16.0229 8.32433 15.9292L12.3243 12.2625C12.4211 12.1737 12.5345 12.1048 12.6579 12.0598C12.7814 12.0149 12.9124 11.9946 13.0437 12.0003C13.175 12.006 13.3038 12.0375 13.4229 12.093C13.5419 12.1485 13.6489 12.227 13.7377 12.3238ZM17.6763 21.0705L20.3697 18.6012C19.936 17.3448 19.9322 15.9799 20.359 14.7212L17.6763 12.2625C17.5795 12.1737 17.4661 12.1049 17.3427 12.0599C17.2193 12.015 17.0882 11.9948 16.957 12.0005C16.8257 12.0062 16.6969 12.0376 16.5778 12.0931C16.4587 12.1486 16.3518 12.227 16.263 12.3238C16.1742 12.4207 16.1054 12.534 16.0604 12.6575C16.0155 12.7809 15.9953 12.912 16.0009 13.0432C16.0066 13.1744 16.0381 13.3033 16.0936 13.4223C16.1491 13.5414 16.2275 13.6484 16.3243 13.7372L19.5203 16.6665L16.3243 19.5958C16.1288 19.7751 16.0124 20.0247 16.0009 20.2898C15.9894 20.5549 16.0837 20.8136 16.263 21.0092C16.4423 21.2047 16.6919 21.321 16.957 21.3325C17.222 21.344 17.4808 21.2498 17.6763 21.0705Z" fill="#006EFC"/>
</g>
</svg>
