<svg width="166" height="55" viewBox="0 0 166 55" fill="none" xmlns="http://www.w3.org/2000/svg">
<g clip-path="url(#clip0_48_1012)">
<circle cx="3" cy="3" r="3" fill="white"/>
<circle cx="19" cy="3" r="3" fill="white"/>
<circle cx="35" cy="3" r="3" fill="white"/>
<circle cx="51" cy="3" r="3" fill="white"/>
<circle cx="67" cy="3" r="3" fill="white"/>
<circle cx="83" cy="3" r="3" fill="white"/>
<circle cx="99" cy="3" r="3" fill="white"/>
<circle cx="115" cy="3" r="3" fill="white"/>
<circle cx="131" cy="3" r="3" fill="white"/>
<circle cx="147" cy="3" r="3" fill="white"/>
<circle cx="163" cy="3" r="3" fill="white"/>
<circle cx="3" cy="19" r="3" fill="white"/>
<circle cx="19" cy="19" r="3" fill="white"/>
<circle cx="35" cy="19" r="3" fill="white"/>
<circle cx="51" cy="19" r="3" fill="white"/>
<circle cx="67" cy="19" r="3" fill="white"/>
<circle cx="83" cy="19" r="3" fill="white"/>
<circle cx="99" cy="19" r="3" fill="white"/>
<circle cx="115" cy="19" r="3" fill="white"/>
<circle cx="131" cy="19" r="3" fill="white"/>
<circle cx="147" cy="19" r="3" fill="white"/>
<circle cx="163" cy="19" r="3" fill="white"/>
<circle cx="3" cy="35" r="3" fill="white"/>
<circle cx="19" cy="35" r="3" fill="white"/>
<circle cx="35" cy="35" r="3" fill="white"/>
<circle cx="51" cy="35" r="3" fill="white"/>
<circle cx="67" cy="35" r="3" fill="white"/>
<circle cx="83" cy="35" r="3" fill="white"/>
<circle cx="99" cy="35" r="3" fill="white"/>
<circle cx="115" cy="35" r="3" fill="white"/>
<circle cx="131" cy="35" r="3" fill="white"/>
<circle cx="147" cy="35" r="3" fill="white"/>
<circle cx="163" cy="35" r="3" fill="white"/>
<circle cx="3" cy="51" r="3" fill="white"/>
<circle cx="19" cy="51" r="3" fill="white"/>
<circle cx="35" cy="51" r="3" fill="white"/>
<circle cx="51" cy="51" r="3" fill="white"/>
<circle cx="67" cy="51" r="3" fill="white"/>
<circle cx="83" cy="51" r="3" fill="white"/>
<circle cx="99" cy="51" r="3" fill="white"/>
<circle cx="115" cy="51" r="3" fill="white"/>
<circle cx="131" cy="51" r="3" fill="white"/>
<circle cx="147" cy="51" r="3" fill="white"/>
<circle cx="163" cy="51" r="3" fill="white"/>
</g>
<defs>
<clipPath id="clip0_48_1012">
<rect width="182" height="55" fill="white" transform="translate(-16)"/>
</clipPath>
</defs>
</svg>
