<svg width="86" height="146" viewBox="0 0 86 146" fill="none" xmlns="http://www.w3.org/2000/svg">
<g clip-path="url(#clip0_49_1539)">
<circle cx="3" cy="3" r="3" fill="#93B6F8"/>
<circle cx="19" cy="3" r="3" fill="#93B6F8"/>
<circle cx="35" cy="3" r="3" fill="#93B6F8"/>
<circle cx="51" cy="3" r="3" fill="#93B6F8"/>
<circle cx="67" cy="3" r="3" fill="#93B6F8"/>
<circle cx="83" cy="3" r="3" fill="#93B6F8"/>
<circle cx="3" cy="19" r="3" fill="#93B6F8"/>
<circle cx="19" cy="19" r="3" fill="#93B6F8"/>
<circle cx="35" cy="19" r="3" fill="#93B6F8"/>
<circle cx="51" cy="19" r="3" fill="#93B6F8"/>
<circle cx="67" cy="19" r="3" fill="#93B6F8"/>
<circle cx="83" cy="19" r="3" fill="#93B6F8"/>
<circle cx="3" cy="35" r="3" fill="#93B6F8"/>
<circle cx="19" cy="35" r="3" fill="#93B6F8"/>
<circle cx="35" cy="35" r="3" fill="#93B6F8"/>
<circle cx="51" cy="35" r="3" fill="#93B6F8"/>
<circle cx="67" cy="35" r="3" fill="#93B6F8"/>
<circle cx="83" cy="35" r="3" fill="#93B6F8"/>
<circle cx="3" cy="51" r="3" fill="#93B6F8"/>
<circle cx="19" cy="51" r="3" fill="#93B6F8"/>
<circle cx="35" cy="51" r="3" fill="#93B6F8"/>
<circle cx="51" cy="51" r="3" fill="#93B6F8"/>
<circle cx="67" cy="51" r="3" fill="#93B6F8"/>
<circle cx="83" cy="51" r="3" fill="#93B6F8"/>
<circle cx="3" cy="67" r="3" fill="#93B6F8"/>
<circle cx="19" cy="67" r="3" fill="#93B6F8"/>
<circle cx="35" cy="67" r="3" fill="#93B6F8"/>
<circle cx="51" cy="67" r="3" fill="#93B6F8"/>
<circle cx="67" cy="67" r="3" fill="#93B6F8"/>
<circle cx="83" cy="67" r="3" fill="#93B6F8"/>
<circle cx="3" cy="83" r="3" fill="#93B6F8"/>
<circle cx="19" cy="83" r="3" fill="#93B6F8"/>
<circle cx="35" cy="83" r="3" fill="#93B6F8"/>
<circle cx="51" cy="83" r="3" fill="#93B6F8"/>
<circle cx="67" cy="83" r="3" fill="#93B6F8"/>
<circle cx="83" cy="83" r="3" fill="#93B6F8"/>
<circle cx="3" cy="99" r="3" fill="#93B6F8"/>
<circle cx="19" cy="99" r="3" fill="#93B6F8"/>
<circle cx="35" cy="99" r="3" fill="#93B6F8"/>
<circle cx="51" cy="99" r="3" fill="#93B6F8"/>
<circle cx="67" cy="99" r="3" fill="#93B6F8"/>
<circle cx="83" cy="99" r="3" fill="#93B6F8"/>
<circle cx="3" cy="115" r="3" fill="#93B6F8"/>
<circle cx="19" cy="115" r="3" fill="#93B6F8"/>
<circle cx="35" cy="115" r="3" fill="#93B6F8"/>
<circle cx="51" cy="115" r="3" fill="#93B6F8"/>
<circle cx="67" cy="115" r="3" fill="#93B6F8"/>
<circle cx="83" cy="115" r="3" fill="#93B6F8"/>
<circle cx="3" cy="131" r="3" fill="#93B6F8"/>
<circle cx="19" cy="131" r="3" fill="#93B6F8"/>
<circle cx="35" cy="131" r="3" fill="#93B6F8"/>
<circle cx="51" cy="131" r="3" fill="#93B6F8"/>
<circle cx="67" cy="131" r="3" fill="#93B6F8"/>
<circle cx="83" cy="131" r="3" fill="#93B6F8"/>
<circle cx="3" cy="147" r="3" fill="#93B6F8"/>
<circle cx="19" cy="147" r="3" fill="#93B6F8"/>
<circle cx="35" cy="147" r="3" fill="#93B6F8"/>
<circle cx="51" cy="147" r="3" fill="#93B6F8"/>
<circle cx="67" cy="147" r="3" fill="#93B6F8"/>
<circle cx="83" cy="147" r="3" fill="#93B6F8"/>
</g>
<defs>
<clipPath id="clip0_49_1539">
<rect width="86" height="146" fill="white"/>
</clipPath>
</defs>
</svg>
