<svg width="192" height="317" viewBox="0 0 192 317" fill="none" xmlns="http://www.w3.org/2000/svg">
<circle cx="3" cy="3" r="3" fill="white"/>
<circle cx="19" cy="3" r="3" fill="white"/>
<circle cx="35" cy="3" r="3" fill="white"/>
<circle cx="51" cy="3" r="3" fill="white"/>
<circle cx="67" cy="3" r="3" fill="white"/>
<circle cx="83" cy="3" r="3" fill="white"/>
<circle cx="99" cy="3" r="3" fill="white"/>
<circle cx="115" cy="3" r="3" fill="white"/>
<circle cx="131" cy="3" r="3" fill="white"/>
<circle cx="147" cy="3" r="3" fill="white"/>
<circle cx="163" cy="3" r="3" fill="white"/>
<circle cx="179" cy="3" r="3" fill="white"/>
<circle cx="3" cy="19" r="3" fill="white"/>
<circle cx="19" cy="19" r="3" fill="white"/>
<circle cx="35" cy="19" r="3" fill="white"/>
<circle cx="51" cy="19" r="3" fill="white"/>
<circle cx="67" cy="19" r="3" fill="white"/>
<circle cx="83" cy="19" r="3" fill="white"/>
<circle cx="99" cy="19" r="3" fill="white"/>
<circle cx="115" cy="19" r="3" fill="white"/>
<circle cx="131" cy="19" r="3" fill="white"/>
<circle cx="147" cy="19" r="3" fill="white"/>
<circle cx="163" cy="19" r="3" fill="white"/>
<circle cx="179" cy="19" r="3" fill="white"/>
<circle cx="3" cy="35" r="3" fill="white"/>
<circle cx="19" cy="35" r="3" fill="white"/>
<circle cx="35" cy="35" r="3" fill="white"/>
<circle cx="51" cy="35" r="3" fill="white"/>
<circle cx="67" cy="35" r="3" fill="white"/>
<circle cx="83" cy="35" r="3" fill="white"/>
<circle cx="99" cy="35" r="3" fill="white"/>
<circle cx="115" cy="35" r="3" fill="white"/>
<circle cx="131" cy="35" r="3" fill="white"/>
<circle cx="147" cy="35" r="3" fill="white"/>
<circle cx="163" cy="35" r="3" fill="white"/>
<circle cx="179" cy="35" r="3" fill="white"/>
<circle cx="3" cy="51" r="3" fill="white"/>
<circle cx="19" cy="51" r="3" fill="white"/>
<circle cx="35" cy="51" r="3" fill="white"/>
<circle cx="51" cy="51" r="3" fill="white"/>
<circle cx="67" cy="51" r="3" fill="white"/>
<circle cx="83" cy="51" r="3" fill="white"/>
<circle cx="99" cy="51" r="3" fill="white"/>
<circle cx="115" cy="51" r="3" fill="white"/>
<circle cx="131" cy="51" r="3" fill="white"/>
<circle cx="147" cy="51" r="3" fill="white"/>
<circle cx="163" cy="51" r="3" fill="white"/>
<circle cx="179" cy="51" r="3" fill="white"/>
<circle cx="3" cy="67" r="3" fill="white"/>
<circle cx="19" cy="67" r="3" fill="white"/>
<circle cx="35" cy="67" r="3" fill="white"/>
<circle cx="51" cy="67" r="3" fill="white"/>
<circle cx="67" cy="67" r="3" fill="white"/>
<circle cx="83" cy="67" r="3" fill="white"/>
<circle cx="99" cy="67" r="3" fill="white"/>
<circle cx="115" cy="67" r="3" fill="white"/>
<circle cx="131" cy="67" r="3" fill="white"/>
<circle cx="147" cy="67" r="3" fill="white"/>
<circle cx="163" cy="67" r="3" fill="white"/>
<circle cx="179" cy="67" r="3" fill="white"/>
<circle cx="3" cy="83" r="3" fill="white"/>
<circle cx="19" cy="83" r="3" fill="white"/>
<circle cx="35" cy="83" r="3" fill="white"/>
<circle cx="51" cy="83" r="3" fill="white"/>
<circle cx="67" cy="83" r="3" fill="white"/>
<circle cx="83" cy="83" r="3" fill="white"/>
<circle cx="99" cy="83" r="3" fill="white"/>
<circle cx="115" cy="83" r="3" fill="white"/>
<circle cx="131" cy="83" r="3" fill="white"/>
<circle cx="147" cy="83" r="3" fill="white"/>
<circle cx="163" cy="83" r="3" fill="white"/>
<circle cx="179" cy="83" r="3" fill="white"/>
<circle cx="3" cy="99" r="3" fill="white"/>
<circle cx="19" cy="99" r="3" fill="white"/>
<circle cx="35" cy="99" r="3" fill="white"/>
<circle cx="51" cy="99" r="3" fill="white"/>
<circle cx="67" cy="99" r="3" fill="white"/>
<circle cx="83" cy="99" r="3" fill="white"/>
<circle cx="99" cy="99" r="3" fill="white"/>
<circle cx="115" cy="99" r="3" fill="white"/>
<circle cx="131" cy="99" r="3" fill="white"/>
<circle cx="147" cy="99" r="3" fill="white"/>
<circle cx="163" cy="99" r="3" fill="white"/>
<circle cx="179" cy="99" r="3" fill="white"/>
<circle cx="3" cy="115" r="3" fill="white"/>
<circle cx="19" cy="115" r="3" fill="white"/>
<circle cx="35" cy="115" r="3" fill="white"/>
<circle cx="51" cy="115" r="3" fill="white"/>
<circle cx="67" cy="115" r="3" fill="white"/>
<circle cx="83" cy="115" r="3" fill="white"/>
<circle cx="99" cy="115" r="3" fill="white"/>
<circle cx="115" cy="115" r="3" fill="white"/>
<circle cx="131" cy="115" r="3" fill="white"/>
<circle cx="147" cy="115" r="3" fill="white"/>
<circle cx="163" cy="115" r="3" fill="white"/>
<circle cx="179" cy="115" r="3" fill="white"/>
<circle cx="3" cy="131" r="3" fill="white"/>
<circle cx="19" cy="131" r="3" fill="white"/>
<circle cx="35" cy="131" r="3" fill="white"/>
<circle cx="51" cy="131" r="3" fill="white"/>
<circle cx="67" cy="131" r="3" fill="white"/>
<circle cx="83" cy="131" r="3" fill="white"/>
<circle cx="99" cy="131" r="3" fill="white"/>
<circle cx="115" cy="131" r="3" fill="white"/>
<circle cx="131" cy="131" r="3" fill="white"/>
<circle cx="147" cy="131" r="3" fill="white"/>
<circle cx="163" cy="131" r="3" fill="white"/>
<circle cx="179" cy="131" r="3" fill="white"/>
<circle cx="3" cy="147" r="3" fill="white"/>
<circle cx="19" cy="147" r="3" fill="white"/>
<circle cx="35" cy="147" r="3" fill="white"/>
<circle cx="51" cy="147" r="3" fill="white"/>
<circle cx="67" cy="147" r="3" fill="white"/>
<circle cx="83" cy="147" r="3" fill="white"/>
<circle cx="99" cy="147" r="3" fill="white"/>
<circle cx="115" cy="147" r="3" fill="white"/>
<circle cx="131" cy="147" r="3" fill="white"/>
<circle cx="147" cy="147" r="3" fill="white"/>
<circle cx="163" cy="147" r="3" fill="white"/>
<circle cx="179" cy="147" r="3" fill="white"/>
<circle cx="3" cy="163" r="3" fill="white"/>
<circle cx="19" cy="163" r="3" fill="white"/>
<circle cx="35" cy="163" r="3" fill="white"/>
<circle cx="51" cy="163" r="3" fill="white"/>
<circle cx="67" cy="163" r="3" fill="white"/>
<circle cx="83" cy="163" r="3" fill="white"/>
<circle cx="99" cy="163" r="3" fill="white"/>
<circle cx="115" cy="163" r="3" fill="white"/>
<circle cx="131" cy="163" r="3" fill="white"/>
<circle cx="147" cy="163" r="3" fill="white"/>
<circle cx="163" cy="163" r="3" fill="white"/>
<circle cx="179" cy="163" r="3" fill="white"/>
<circle cx="3" cy="179" r="3" fill="white"/>
<circle cx="19" cy="179" r="3" fill="white"/>
<circle cx="35" cy="179" r="3" fill="white"/>
<circle cx="51" cy="179" r="3" fill="white"/>
<circle cx="67" cy="179" r="3" fill="white"/>
<circle cx="83" cy="179" r="3" fill="white"/>
<circle cx="99" cy="179" r="3" fill="white"/>
<circle cx="115" cy="179" r="3" fill="white"/>
<circle cx="131" cy="179" r="3" fill="white"/>
<circle cx="147" cy="179" r="3" fill="white"/>
<circle cx="163" cy="179" r="3" fill="white"/>
<circle cx="179" cy="179" r="3" fill="white"/>
<circle cx="3" cy="195" r="3" fill="white"/>
<circle cx="19" cy="195" r="3" fill="white"/>
<circle cx="35" cy="195" r="3" fill="white"/>
<circle cx="51" cy="195" r="3" fill="white"/>
<circle cx="67" cy="195" r="3" fill="white"/>
<circle cx="83" cy="195" r="3" fill="white"/>
<circle cx="99" cy="195" r="3" fill="white"/>
<circle cx="115" cy="195" r="3" fill="white"/>
<circle cx="131" cy="195" r="3" fill="white"/>
<circle cx="147" cy="195" r="3" fill="white"/>
<circle cx="163" cy="195" r="3" fill="white"/>
<circle cx="179" cy="195" r="3" fill="white"/>
<circle cx="3" cy="211" r="3" fill="white"/>
<circle cx="19" cy="211" r="3" fill="white"/>
<circle cx="35" cy="211" r="3" fill="white"/>
<circle cx="51" cy="211" r="3" fill="white"/>
<circle cx="67" cy="211" r="3" fill="white"/>
<circle cx="83" cy="211" r="3" fill="white"/>
<circle cx="99" cy="211" r="3" fill="white"/>
<circle cx="115" cy="211" r="3" fill="white"/>
<circle cx="131" cy="211" r="3" fill="white"/>
<circle cx="147" cy="211" r="3" fill="white"/>
<circle cx="163" cy="211" r="3" fill="white"/>
<circle cx="179" cy="211" r="3" fill="white"/>
<circle cx="3" cy="227" r="3" fill="white"/>
<circle cx="19" cy="227" r="3" fill="white"/>
<circle cx="35" cy="227" r="3" fill="white"/>
<circle cx="51" cy="227" r="3" fill="white"/>
<circle cx="67" cy="227" r="3" fill="white"/>
<circle cx="83" cy="227" r="3" fill="white"/>
<circle cx="99" cy="227" r="3" fill="white"/>
<circle cx="115" cy="227" r="3" fill="white"/>
<circle cx="131" cy="227" r="3" fill="white"/>
<circle cx="147" cy="227" r="3" fill="white"/>
<circle cx="163" cy="227" r="3" fill="white"/>
<circle cx="179" cy="227" r="3" fill="white"/>
<circle cx="3" cy="243" r="3" fill="white"/>
<circle cx="19" cy="243" r="3" fill="white"/>
<circle cx="35" cy="243" r="3" fill="white"/>
<circle cx="51" cy="243" r="3" fill="white"/>
<circle cx="67" cy="243" r="3" fill="white"/>
<circle cx="83" cy="243" r="3" fill="white"/>
<circle cx="99" cy="243" r="3" fill="white"/>
<circle cx="115" cy="243" r="3" fill="white"/>
<circle cx="131" cy="243" r="3" fill="white"/>
<circle cx="147" cy="243" r="3" fill="white"/>
<circle cx="163" cy="243" r="3" fill="white"/>
<circle cx="179" cy="243" r="3" fill="white"/>
<circle cx="3" cy="259" r="3" fill="white"/>
<circle cx="19" cy="259" r="3" fill="white"/>
<circle cx="35" cy="259" r="3" fill="white"/>
<circle cx="51" cy="259" r="3" fill="white"/>
<circle cx="67" cy="259" r="3" fill="white"/>
<circle cx="83" cy="259" r="3" fill="white"/>
<circle cx="99" cy="259" r="3" fill="white"/>
<circle cx="115" cy="259" r="3" fill="white"/>
<circle cx="131" cy="259" r="3" fill="white"/>
<circle cx="147" cy="259" r="3" fill="white"/>
<circle cx="163" cy="259" r="3" fill="white"/>
<circle cx="179" cy="259" r="3" fill="white"/>
<circle cx="3" cy="275" r="3" fill="white"/>
<circle cx="19" cy="275" r="3" fill="white"/>
<circle cx="35" cy="275" r="3" fill="white"/>
<circle cx="51" cy="275" r="3" fill="white"/>
<circle cx="67" cy="275" r="3" fill="white"/>
<circle cx="83" cy="275" r="3" fill="white"/>
<circle cx="99" cy="275" r="3" fill="white"/>
<circle cx="115" cy="275" r="3" fill="white"/>
<circle cx="131" cy="275" r="3" fill="white"/>
<circle cx="147" cy="275" r="3" fill="white"/>
<circle cx="163" cy="275" r="3" fill="white"/>
<circle cx="179" cy="275" r="3" fill="white"/>
<circle cx="3" cy="291" r="3" fill="white"/>
<circle cx="19" cy="291" r="3" fill="white"/>
<circle cx="35" cy="291" r="3" fill="white"/>
<circle cx="51" cy="291" r="3" fill="white"/>
<circle cx="67" cy="291" r="3" fill="white"/>
<circle cx="83" cy="291" r="3" fill="white"/>
<circle cx="99" cy="291" r="3" fill="white"/>
<circle cx="115" cy="291" r="3" fill="white"/>
<circle cx="131" cy="291" r="3" fill="white"/>
<circle cx="147" cy="291" r="3" fill="white"/>
<circle cx="163" cy="291" r="3" fill="white"/>
<circle cx="179" cy="291" r="3" fill="white"/>
<circle cx="3" cy="307" r="3" fill="white"/>
<circle cx="19" cy="307" r="3" fill="white"/>
<circle cx="35" cy="307" r="3" fill="white"/>
<circle cx="51" cy="307" r="3" fill="white"/>
<circle cx="67" cy="307" r="3" fill="white"/>
<circle cx="83" cy="307" r="3" fill="white"/>
<circle cx="99" cy="307" r="3" fill="white"/>
<circle cx="115" cy="307" r="3" fill="white"/>
<circle cx="131" cy="307" r="3" fill="white"/>
<circle cx="147" cy="307" r="3" fill="white"/>
<circle cx="163" cy="307" r="3" fill="white"/>
<circle cx="179" cy="307" r="3" fill="white"/>
</svg>
